<svg xmlns="http://www.w3.org/2000/svg" viewBox="0 0 48 48"><path d="M38 48H10C4.477 48 0 43.523 0 38V10C0 4.477 4.477 0 10 0h28c5.523 0 10 4.477 10 10v28c0 5.523-4.477 10-10 10z"/><path fill="#fff" d="m35.42 30.52-4.027-9.397.937-.811c1.634-1.424 2.57-3.484 2.57-5.712 0-.827-.673-1.5-1.56-1.5a7.497 7.497 0 0 0-5.653 2.571l-.81.936-9.397-4.027a.508.508 0 0 0-.551.106L15.515 14.1a.506.506 0 0 0-.145.401.505.505 0 0 0 .218.366l8.068 5.459-6.402 7.396-2.62-1.008a.5.5 0 0 0-.533.113l-1.414 1.415a.499.499 0 0 0 .085.775l3.795 2.415 2.415 3.795a.502.502 0 0 0 .776.086l1.415-1.414a.498.498 0 0 0 .113-.533l-1.008-2.62 7.396-6.402 5.459 8.068a.505.505 0 0 0 .366.218.512.512 0 0 0 .401-.145l1.414-1.414a.503.503 0 0 0 .106-.551zm-1.799.829-5.436-8.033c-.08-.118-.207-.196-.349-.216s-.286.024-.393.118l-8.087 7.001a.502.502 0 0 0-.14.558l1.018 2.645-.745.744-2.14-3.363a.496.496 0 0 0-.153-.153l-3.363-2.14.744-.745 2.645 1.018a.5.5 0 0 0 .558-.14l7.001-8.087a.498.498 0 0 0-.098-.742l-8.033-5.436.746-.746 9.422 4.038a.497.497 0 0 0 .575-.133l1.048-1.211c1.234-1.415 3.02-2.227 4.958-2.227.275 0 .5.225.5.56a6.496 6.496 0 0 1-2.226 4.897l-1.212 1.049a.5.5 0 0 0-.133.575l4.038 9.422-.745.747z"/></svg>